<svg width="94" height="21" viewBox="0 0 94 21" fill="none" xmlns="http://www.w3.org/2000/svg">
<path d="M50.1901 20.4873H55.3792L57.4769 7.22719H52.3154L50.1901 20.4873Z" fill="#D71920"/>
<path d="M58.6998 20.4873H72.4241L73.1418 15.9138H64.5938L65.2499 11.8006H73.6237L74.352 7.22719H60.8209L58.6998 20.4873Z" fill="#D71920"/>
<path d="M93.1486 3.65717C92.9533 3.03729 92.6072 2.47546 92.1401 2.01936C91.5583 1.48862 90.8725 1.08228 90.1273 0.825203C89.3821 0.568128 88.588 0.466542 87.8003 0.526664H46.5127C44.7271 0.462395 42.9712 0.951667 41.5147 1.96753C40.9054 2.36765 40.3873 2.88802 39.9903 3.49339C39.5932 4.09876 39.3278 4.77876 39.209 5.48987L37.8671 13.8178H43.1093L44.2537 6.62804C44.2706 6.40207 44.3365 6.18231 44.4426 5.98121C44.5488 5.78011 44.6974 5.60182 44.8757 5.45877C45.0541 5.31572 45.26 5.20791 45.483 5.14572C45.7059 5.08352 45.9373 5.06486 46.1666 5.09181H48.12H48.4257H93.3227C93.3524 4.60876 93.293 4.12364 93.1465 3.65924L93.1486 3.65717Z" fill="#D71920"/>
<path d="M75.5007 20.4873H80.677L81.7641 13.3659H85.9C87.6177 13.4239 89.3035 12.9015 90.6815 11.8856C91.2717 11.4793 91.7728 10.961 92.1592 10.3618C92.5456 9.7627 92.8068 9.09099 92.9299 8.39025L93.1168 7.22719H77.6132L75.4985 20.4873H75.5007Z" fill="#D71920"/>
<path d="M0.73887 15.9429L0 20.5059H41.1899C42.9076 20.5661 44.5955 20.0478 45.9713 19.0381C46.5637 18.6256 47.0648 18.101 47.4491 17.4977C47.7527 17.0188 47.9544 16.4902 48.0924 15.9429H0.73887Z" fill="#D71920"/>
<path d="M22.7181 0.578494H18.3677L11.2338 12.4143L7.88766 0.578494H3.16143L1.04886 13.8178H20.6056L22.7181 0.578494Z" fill="#D71920"/>
<path d="M35.8437 13.8178L34.625 0.584713H29.4465L22.3912 13.8178H35.8437Z" fill="#D71920"/>
</svg>
